<svg width="507" height="347" viewBox="0 0 507 347" fill="none" xmlns="http://www.w3.org/2000/svg">
<g clip-path="url(#clip0_68_5318)">
<mask id="mask0_68_5318" style="mask-type:alpha" maskUnits="userSpaceOnUse" x="1" y="-28" width="916" height="375">
<rect width="915.75" height="374.25" transform="matrix(-1 0 0 1 916.75 -28)" fill="#D9D9D9"/>
</mask>
<g mask="url(#mask0_68_5318)">
<g opacity="0.5">
<path d="M267.135 205.149C292.955 192.546 313.609 175.894 326.172 159.296C338.849 142.547 342.76 126.655 337.053 114.96C331.345 103.266 316.411 96.5718 295.409 96.2614C274.595 95.9538 248.762 101.992 222.941 114.595C197.12 127.198 176.468 143.85 163.905 160.448C151.228 177.197 147.317 193.09 153.024 204.784L150.328 206.1L150.033 205.476C137.992 179.156 169.228 137.886 220.404 112.5L221.625 111.899C273.932 86.3679 326.818 87.1496 339.749 113.644L340.043 114.268C352.179 140.797 320.349 182.514 268.45 207.845L267.225 208.439C215.32 233.362 163.158 232.388 150.328 206.1L153.024 204.784C158.731 216.478 173.665 223.172 194.667 223.482C215.481 223.79 241.314 217.752 267.135 205.149Z" fill="white"/>
<path d="M277.032 222.182C311.026 205.59 338.259 183.649 354.854 161.723C371.563 139.646 376.958 118.389 369.23 102.555C361.503 86.7207 341.427 77.8959 313.744 77.4868C286.25 77.0806 252.199 85.0519 218.205 101.644C184.211 118.237 156.977 140.178 140.382 162.104C123.673 184.18 118.278 205.438 126.006 221.272L123.31 222.588L123.114 222.18C106.666 187.381 148.504 132.327 216.889 98.9481C285.543 65.4388 354.955 66.4645 371.926 101.239C388.898 136.014 347.001 191.369 278.347 224.878C209.694 258.388 140.281 257.363 123.31 222.588L126.006 221.272C133.733 237.106 153.809 245.931 181.492 246.34C208.986 246.746 243.038 238.775 277.032 222.182Z" fill="white" fill-opacity="0.8"/>
<path d="M289.078 246.186C333.778 224.368 369.632 195.497 391.509 166.592C413.5 137.537 420.839 109.252 410.464 87.9945C400.09 66.737 373.278 55.1204 336.845 54.5821C300.6 54.0465 255.782 64.551 211.082 86.3693C166.381 108.188 130.527 137.058 108.65 165.963C86.6588 195.018 79.3205 223.303 89.6948 244.561L86.9988 245.877L86.7415 245.341C65.3331 200.047 119.194 128.594 207.662 84.7085L209.766 83.6732C299.833 39.712 390.896 41.0575 413.16 86.6786C435.425 132.3 380.46 204.921 290.393 248.882L288.283 249.904C198.908 292.82 109.09 291.141 86.9988 245.877L89.6948 244.561C100.069 265.818 126.881 277.435 163.315 277.973C199.559 278.509 244.377 268.004 289.078 246.186Z" fill="white" fill-opacity="0.6"/>
<path opacity="0.4" d="M299.561 270.557C355.611 243.2 400.602 206.984 428.078 170.682C455.668 134.229 465.067 98.494 451.887 71.4878C438.707 44.4817 404.755 29.9066 359.045 29.2312C313.525 28.5585 257.295 41.7475 201.246 69.1051C145.196 96.4628 100.205 132.679 72.7287 168.981C45.1389 205.434 35.7399 241.168 48.9196 268.174L46.2236 269.49L45.9018 268.819C19.0988 212.11 86.5334 122.651 197.295 67.7056L199.93 66.4091C312.695 11.369 426.707 13.0537 454.583 70.1719C482.458 127.29 413.642 218.213 300.877 273.253L298.234 274.533C186.336 328.264 73.8816 326.162 46.2236 269.49L48.9196 268.174C62.0995 295.18 96.0515 309.756 141.761 310.431C187.282 311.104 243.511 297.915 299.561 270.557Z" fill="white"/>
<path opacity="0.4" d="M312.617 295.661C379.899 262.821 433.934 219.335 466.952 175.712C500.083 131.938 511.521 88.8289 495.564 56.133C479.608 23.4372 438.589 5.93312 383.698 5.12198C328.997 4.31369 261.473 20.1604 194.19 53.0007C126.907 85.8411 72.8721 129.327 39.8548 172.95C6.72355 216.724 -4.71391 259.832 11.2426 292.528L8.54662 293.844C-24.7518 225.614 57.0012 117.161 191.293 51.0799L192.874 50.3047C328.105 -15.7008 464.831 -13.6805 498.26 54.8171C531.69 123.315 449.163 232.352 313.932 298.358L312.348 299.128C177.635 364.346 41.8453 362.074 8.54662 293.844L11.2426 292.528C27.1993 325.224 68.2178 342.729 123.108 343.54C177.81 344.349 245.334 328.502 312.617 295.661Z" fill="white" fill-opacity="0.5"/>
</g>
<path d="M244.002 92.7515C280.271 92.7515 309.706 122.007 309.998 158.208C299.696 171.596 282.959 185.015 262.069 195.211C240.905 205.54 219.754 210.476 202.746 210.225C202.727 210.224 202.707 210.223 202.688 210.223C187.636 198.126 178.002 179.564 178.002 158.751C178.002 122.301 207.551 92.7515 244.002 92.7515Z" fill="white"/>
</g>
</g>
<defs>
<clipPath id="clip0_68_5318">
<rect width="507" height="347" fill="white"/>
</clipPath>
</defs>
</svg>
