<svg width="1830" height="750" viewBox="0 0 1830 750" fill="none" xmlns="http://www.w3.org/2000/svg">
<g clip-path="url(#clip0_68_5298)">
<mask id="mask0_68_5298" style="mask-type:alpha" maskUnits="userSpaceOnUse" x="0" y="0" width="1832" height="749">
<rect width="1831.5" height="748.5" transform="matrix(-1 0 0 1 1831.5 0)" fill="#D9D9D9"/>
</mask>
<g mask="url(#mask0_68_5298)">
<path d="M1356.09 504.126C1343.24 504.126 1331.72 501.943 1321.53 497.577C1311.35 492.969 1303.22 486.421 1297.16 477.933C1291.34 469.202 1288.43 458.652 1288.43 446.283C1288.43 433.914 1291.34 423.607 1297.16 415.361C1303.22 406.873 1311.47 400.567 1321.9 396.444C1332.57 392.079 1344.7 389.896 1358.28 389.896H1407.75V379.71C1407.75 371.221 1405.08 364.309 1399.75 358.974C1394.41 353.396 1385.93 350.607 1374.28 350.607C1362.89 350.607 1354.4 353.274 1348.82 358.61C1343.24 363.703 1339.6 370.372 1337.91 378.618L1295.71 364.431C1298.62 355.215 1303.22 346.847 1309.53 339.329C1316.08 331.568 1324.69 325.384 1335.36 320.776C1346.27 315.925 1359.49 313.5 1375.01 313.5C1398.78 313.5 1417.57 319.442 1431.4 331.326C1445.22 343.209 1452.13 360.429 1452.13 382.984V450.285C1452.13 457.561 1455.53 461.199 1462.32 461.199H1476.87V499.033H1446.31C1437.34 499.033 1429.94 496.85 1424.12 492.484C1418.3 488.119 1415.39 482.298 1415.39 475.023V474.659H1408.48C1407.51 477.569 1405.33 481.449 1401.93 486.3C1398.54 490.908 1393.2 495.031 1385.93 498.669C1378.65 502.307 1368.71 504.126 1356.09 504.126ZM1364.1 467.019C1376.95 467.019 1387.38 463.503 1395.38 456.469C1403.63 449.193 1407.75 439.614 1407.75 427.73V424.092H1361.55C1353.06 424.092 1346.39 425.911 1341.54 429.549C1336.69 433.187 1334.27 438.28 1334.27 444.828C1334.27 451.376 1336.81 456.712 1341.91 460.835C1347 464.958 1354.4 467.019 1364.1 467.019Z" fill="white"/>
<path d="M1203.28 503.463C1191.4 503.463 1181.7 499.825 1174.18 492.549C1166.9 485.031 1163.27 475.088 1163.27 462.719V360.858H1118.16V323.024H1163.27V267H1209.1V323.024H1258.58V360.858H1209.1V454.715C1209.1 461.991 1212.5 465.629 1219.29 465.629H1254.21V503.463H1203.28Z" fill="white"/>
<path d="M1037.53 504.246V323.807H1083.37V504.246H1037.53Z" fill="white"/>
<path d="M1060.45 302.706C1052.2 302.706 1045.17 300.039 1039.35 294.703C1033.77 289.367 1030.98 282.334 1030.98 273.603C1030.98 264.872 1033.77 257.839 1039.35 252.503C1045.17 247.168 1052.2 244.5 1060.45 244.5C1068.94 244.5 1075.97 247.168 1081.55 252.503C1087.13 257.839 1089.91 264.872 1089.91 273.603C1089.91 282.334 1087.13 289.367 1081.55 294.703C1075.97 300.039 1068.94 302.706 1060.45 302.706Z" fill="white"/>
<path d="M913.954 504.246C897.705 504.246 885.215 501.457 876.484 495.879C867.753 490.3 861.326 484.116 857.203 477.325H850.655V499.153H805.545V244.5H851.382V339.449H857.931C860.598 335.084 864.115 330.961 868.481 327.08C873.089 323.2 879.03 320.047 886.306 317.622C893.825 314.954 903.041 313.62 913.954 313.62C928.506 313.62 941.966 317.258 954.335 324.534C966.704 331.567 976.647 341.996 984.166 355.82C991.684 369.644 995.443 386.378 995.443 406.023V411.843C995.443 431.488 991.684 448.222 984.166 462.046C976.647 475.87 966.704 486.42 954.335 493.696C941.966 500.729 928.506 504.246 913.954 504.246ZM900.13 464.229C914.197 464.229 925.959 459.742 935.418 450.769C944.876 441.553 949.606 428.214 949.606 410.752V407.114C949.606 389.652 944.876 376.434 935.418 367.461C926.202 358.245 914.439 353.637 900.13 353.637C886.064 353.637 874.301 358.245 864.843 367.461C855.384 376.434 850.655 389.652 850.655 407.114V410.752C850.655 428.214 855.384 441.553 864.843 450.769C874.301 459.742 886.064 464.229 900.13 464.229Z" fill="white"/>
<path d="M661.309 503.667V323.228H706.419V343.6H712.967C715.634 336.324 720 330.988 726.063 327.593C732.369 324.198 739.645 322.5 747.89 322.5H769.718V363.244H747.163C735.522 363.244 725.942 366.397 718.424 372.703C710.905 378.766 707.146 388.225 707.146 401.079V503.667H661.309Z" fill="white"/>
<g opacity="0.5">
<path d="M532.269 466.298C583.911 441.092 625.217 407.789 650.343 374.591C675.697 341.093 683.519 309.31 672.105 285.921C660.691 262.532 630.823 249.144 588.818 248.523C547.19 247.908 495.524 259.984 443.882 285.19C392.241 310.396 350.935 343.699 325.809 376.896C300.455 410.394 292.633 442.179 304.048 465.568L298.656 468.2L298.065 466.953C273.984 414.312 336.457 331.772 438.807 281L441.25 279.797C545.865 228.736 651.636 230.299 677.497 283.289L678.087 284.537C702.357 337.595 638.697 421.028 534.901 471.691L532.45 472.877C428.64 522.724 324.315 520.775 298.656 468.2L304.048 465.568C315.463 488.956 345.33 502.344 387.335 502.965C428.962 503.58 480.628 491.504 532.269 466.298Z" fill="white"/>
<path d="M552.063 500.365C620.051 467.18 674.518 423.298 707.708 379.446C741.126 335.293 751.916 292.779 736.461 261.11C721.005 229.441 680.853 211.792 625.488 210.974C570.5 210.161 502.398 226.104 434.41 259.288C366.422 292.473 311.954 336.356 278.764 380.208C245.346 424.361 234.556 466.875 250.011 498.544L244.619 501.176L244.227 500.359C211.332 430.763 295.007 320.654 431.778 253.896C569.085 186.878 707.91 188.929 741.853 258.478C775.795 328.028 692.002 438.738 554.695 505.757C417.388 572.776 278.562 570.725 244.619 501.176L250.011 498.544C265.466 530.212 305.618 547.862 360.984 548.68C415.972 549.493 484.075 533.55 552.063 500.365Z" fill="white" fill-opacity="0.8"/>
<path d="M576.155 548.372C665.557 504.735 737.265 446.994 781.019 389.185C825.001 331.074 839.678 274.504 818.929 231.989C798.18 189.474 744.557 166.241 671.689 165.164C599.2 164.093 509.565 185.102 420.163 228.739C330.762 272.375 259.054 330.117 215.3 387.926C171.318 446.036 156.641 502.606 177.39 545.121L171.998 547.753L171.483 546.682C128.666 456.094 236.389 313.188 413.323 225.417L417.532 223.346C597.666 135.424 779.791 138.115 824.321 229.357C868.85 320.6 758.921 465.842 578.787 553.764L574.565 555.808C395.816 641.639 216.179 638.283 171.998 547.753L177.39 545.121C198.138 587.637 251.762 610.869 324.629 611.946C397.119 613.018 486.753 592.008 576.155 548.372Z" fill="white" fill-opacity="0.6"/>
<path opacity="0.4" d="M597.122 597.115C709.222 542.399 799.204 469.967 854.156 397.363C909.336 324.458 928.133 252.988 901.773 198.976C875.413 144.963 807.51 115.813 716.091 114.462C625.049 113.117 512.591 139.495 400.491 194.21C288.391 248.926 198.409 321.358 143.457 393.962C88.2778 466.867 69.4797 538.336 95.8392 592.348L90.4472 594.98L89.8036 593.638C36.1975 480.22 171.067 301.301 392.591 191.411L397.86 188.818C623.39 78.738 851.413 82.1073 907.165 196.344C962.917 310.581 825.284 492.427 599.754 602.507L594.468 605.066C370.671 712.528 145.763 708.325 90.4472 594.98L95.8392 592.348C122.199 646.361 190.103 675.512 281.523 676.863C372.564 678.208 485.022 651.83 597.122 597.115Z" fill="white"/>
<path opacity="0.4" d="M623.233 647.323C757.798 581.642 865.869 494.67 931.904 407.424C998.167 319.875 1021.04 233.658 989.129 168.266C957.215 102.874 875.178 67.8662 765.397 66.244C655.994 64.6274 520.945 96.3208 386.38 162.001C251.815 227.682 143.744 314.654 77.7095 401.901C11.4471 489.449 -11.4278 575.665 20.4852 641.056L15.0932 643.688C-51.5036 507.227 112.002 290.322 380.585 158.16L383.749 156.609C654.21 24.5985 927.662 28.639 994.521 165.634C1061.38 302.63 896.326 520.704 625.865 652.715L622.696 654.255C353.271 784.692 81.6906 780.149 15.0932 643.688L20.4852 641.056C52.3986 706.448 134.436 741.458 244.217 743.08C353.62 744.697 488.668 713.003 623.233 647.323Z" fill="white" fill-opacity="0.5"/>
</g>
<path d="M486.004 241.503C558.543 241.503 617.413 300.015 617.997 372.416C597.392 399.192 563.918 426.03 522.139 446.421C479.81 467.081 437.508 476.952 403.492 476.449C403.453 476.449 403.414 476.447 403.375 476.446C373.272 452.253 354.004 415.128 354.004 373.503C354.004 300.601 413.102 241.503 486.004 241.503Z" fill="white"/>
</g>
</g>
<defs>
<clipPath id="clip0_68_5298">
<rect width="1830" height="750" fill="white"/>
</clipPath>
</defs>
</svg>
